<svg id="Layer_1" data-name="Layer 1" xmlns="http://www.w3.org/2000/svg" viewBox="0 0 25 25"><defs><style>.cls-1{fill:none;stroke:#231f20;stroke-miterlimit:10;stroke-width:0.57px;}</style></defs><title>Results</title><path class="cls-1" d="M10.27,1.93V20.05a3.17,3.17,0,0,1-3.16,3.16h0a3.17,3.17,0,0,1-3.16-3.16V1.93"/><line class="cls-1" x1="2.36" y1="1.78" x2="11.85" y2="1.78"/><line class="cls-1" x1="6.46" y1="5.45" x2="3.94" y2="5.45"/><line class="cls-1" x1="6.46" y1="9.77" x2="3.94" y2="9.77"/><line class="cls-1" x1="6.46" y1="14.08" x2="3.94" y2="14.08"/><line class="cls-1" x1="6.46" y1="18.4" x2="3.94" y2="18.4"/><path class="cls-1" d="M21.06,1.93V20.05a3.17,3.17,0,0,1-3.16,3.16h0a3.17,3.17,0,0,1-3.16-3.16V1.93"/><path class="cls-1" d="M14.73,8.83V20.05a3.17,3.17,0,0,0,3.16,3.16h0a3.17,3.17,0,0,0,3.16-3.16V8.83Z"/><line class="cls-1" x1="13.15" y1="1.78" x2="22.64" y2="1.78"/></svg>