<svg id="Layer_1" data-name="Layer 1" xmlns="http://www.w3.org/2000/svg" viewBox="0 0 25 25"><defs><style>.cls-1{fill:#6dc7b8;}</style></defs><title>Neph</title><path class="cls-1" d="M18.65,12.51a.29.29,0,0,1-.06-.15c-.06-.38-.11-.77-.16-1.15s-.09-.77-.13-1.16c0-.23,0-.46-.07-.68s-.09-.71-.12-1.07-.06-.69-.1-1-.09-.76-.12-1.15a1,1,0,0,0-.38-.83,3.91,3.91,0,0,0-.82-.43,8.56,8.56,0,0,0-2.47-.42l-.16,0h-2.4l-.41,0c-.52.07-1,.13-1.55.22a3.35,3.35,0,0,0-1.47.61.84.84,0,0,0-.36.66c0,.22,0,.43-.06.65,0,.38-.08.75-.12,1.13s0,.46-.07.68-.08.73-.12,1.1,0,.49-.07.73-.08.74-.12,1.11,0,.47-.07.7a1.1,1.1,0,0,1-.18.5,1.89,1.89,0,0,0,.79,3,.18.18,0,0,1,.09.08c.16.36.31.72.48,1.08a10.44,10.44,0,0,0,1.49,2.41,4.79,4.79,0,0,0,1.44,1.17,3.31,3.31,0,0,0,2,.32A3.37,3.37,0,0,0,14.72,20a5.13,5.13,0,0,0,1.12-1,8.18,8.18,0,0,0,1.08-1.6c.31-.6.57-1.23.85-1.84a.34.34,0,0,1,.13-.11,4.27,4.27,0,0,0,.61-.39,1.77,1.77,0,0,0,.58-1.36A1.67,1.67,0,0,0,18.65,12.51Zm-1.34-1-1.41-.22c-.52-.07-1-.13-1.57-.19-.31,0-.62,0-.93,0s-.79,0-1.18,0c-.58,0-1.15.09-1.73.15s-1,.12-1.55.19c-.32,0-.64.11-1,.17H7.82l.6-5.76a3.57,3.57,0,0,1,1.3-.42c.66-.09,1.33-.15,2-.19s1.37-.06,2.05,0a12.19,12.19,0,0,1,2.72.33,5.82,5.82,0,0,1,.72.27.23.23,0,0,1,.1.16c.06.46.1.92.15,1.37,0,.28,0,.55.08.83,0,.43.1.87.15,1.3,0,.27.05.54.08.81l.13,1.33Z"/><path class="cls-1" d="M13.48,6.27H12.22V7.5H11V8.77h1.26V10h1.27V8.76h1.25V7.49H13.48Z"/></svg>