<svg id="Layer_1" data-name="Layer 1" xmlns="http://www.w3.org/2000/svg" viewBox="0 0 25 25"><defs><style>.cls-1{fill:none;stroke:#231f20;stroke-miterlimit:10;stroke-width:0.57px;}.cls-2{fill:#231f20;}</style></defs><title>Timeline</title><rect class="cls-1" x="1.73" y="3.93" width="21.55" height="19.03"/><rect class="cls-2" x="6.66" y="8.51" width="0.9" height="0.9"/><rect class="cls-2" x="12.05" y="8.51" width="0.9" height="0.9"/><rect class="cls-2" x="17.44" y="8.51" width="0.9" height="0.9"/><rect class="cls-2" x="6.66" y="13.89" width="0.9" height="0.9"/><rect class="cls-2" x="12.05" y="13.89" width="0.9" height="0.9"/><rect class="cls-2" x="17.44" y="13.89" width="0.9" height="0.9"/><rect class="cls-2" x="6.66" y="19.28" width="0.9" height="0.9"/><rect class="cls-2" x="12.05" y="19.28" width="0.9" height="0.9"/><rect class="cls-2" x="17.44" y="19.28" width="0.9" height="0.9"/><line class="cls-1" x1="4.42" y1="2.04" x2="4.42" y2="5.45"/><line class="cls-1" x1="7.11" y1="2.04" x2="7.11" y2="5.45"/><line class="cls-1" x1="9.81" y1="2.04" x2="9.81" y2="5.45"/><line class="cls-1" x1="12.5" y1="2.04" x2="12.5" y2="5.45"/><line class="cls-1" x1="15.19" y1="2.04" x2="15.19" y2="5.45"/><line class="cls-1" x1="17.89" y1="2.04" x2="17.89" y2="5.45"/><line class="cls-1" x1="20.58" y1="2.04" x2="20.58" y2="5.45"/><circle class="cls-1" cx="7.11" cy="14.34" r="2.23"/></svg>